<svg width="1366" height="723" viewBox="0 0 1366 723" fill="none" xmlns="http://www.w3.org/2000/svg">
<path d="M0 575H769V701C448.363 722.753 279.383 709.927 0 632V575Z" fill="#387DFA"/>
<path d="M260 18.105C537.126 -11.8057 695.312 1.11843 981 28.8666V140.353H260V18.105Z" fill="#518DFA"/>
<path d="M1366 53.3485C1089.5 -74.3339 875.5 125.287 -0.00012207 53.3485V243.553H1366V53.3485Z" fill="#387DFA"/>
<path d="M1366 53.3485C1089.5 -74.3339 875.5 125.287 -0.00012207 53.3485V243.553H1366V53.3485Z" fill="#387DFA"/>
<path d="M-0.000137329 53.3483C472 -85.2565 490.499 125.287 1366 53.3483V631.873C876 862.755 548 574.627 -0.000137329 632V53.3483Z" fill="#0652DD"/>
<path d="M-0.000137329 53.3483C472 -85.2565 490.499 125.287 1366 53.3483V631.873C876 862.755 548 574.627 -0.000137329 632V53.3483Z" fill="#0652DD"/>
</svg>
